HIERARCHY
ROOT Hips
{
	OFFSET -0.001795 -0.223333 0.028219
	CHANNELS 6 Xposition Yposition Zposition Zrotation Yrotation Xrotation 
	JOINT LeftUpLeg
	{
		OFFSET 0.069520 -0.091406 -0.006815
		CHANNELS 3 Zrotation Yrotation Xrotation
		JOINT LeftLeg
		{
			OFFSET 0.034277 -0.375199 -0.004496
			CHANNELS 3 Zrotation Yrotation Xrotation
			JOINT LeftFoot
			{
				OFFSET -0.013596 -0.397961 -0.043693
				CHANNELS 3 Zrotation Yrotation Xrotation
				JOINT LeftToe
				{
					OFFSET 0.026358 -0.055791 0.119288
					CHANNELS 3 Zrotation Yrotation Xrotation
					End Site
					{
						OFFSET 0.000000 0.000000 0.000000
					}
				}
			}
		}
	}
	JOINT RightUpLeg
	{
		OFFSET -0.067670 -0.090522 -0.004320
		CHANNELS 3 Zrotation Yrotation Xrotation
		JOINT RightLeg
		{
			OFFSET -0.038290 -0.382569 -0.008850
			CHANNELS 3 Zrotation Yrotation Xrotation
			JOINT RightFoot
			{
				OFFSET 0.015774 -0.398415 -0.042312
				CHANNELS 3 Zrotation Yrotation Xrotation
				JOINT RightToe
				{
					OFFSET -0.025372 -0.048144 0.123348
					CHANNELS 3 Zrotation Yrotation Xrotation
					End Site
					{
						OFFSET 0.000000 0.000000 0.000000
					}
				}
			}
		}
	}
	JOINT Spine
	{
		OFFSET -0.002533 0.108963 -0.026696
		CHANNELS 3 Zrotation Yrotation Xrotation
		JOINT Spine1
		{
			OFFSET 0.005487 0.135180 0.001092
			CHANNELS 3 Zrotation Yrotation Xrotation
			JOINT Spine2
			{
				OFFSET 0.001457 0.052922 0.025425
				CHANNELS 3 Zrotation Yrotation Xrotation
				JOINT Neck
				{
					OFFSET -0.002778 0.213870 -0.042857
					CHANNELS 3 Zrotation Yrotation Xrotation
					JOINT Head
					{
						OFFSET 0.005152 0.064970 0.051349
						CHANNELS 3 Zrotation Yrotation Xrotation
						End Site
						{
							OFFSET 0.000000 0.000000 0.000000
						}
					}
				}
				JOINT LeftShoulder
				{
					OFFSET 0.078845 0.121749 -0.034090
					CHANNELS 3 Zrotation Yrotation Xrotation
					JOINT LeftArm
					{
						OFFSET 0.090977 0.030469 -0.008868
						CHANNELS 3 Zrotation Yrotation Xrotation
						JOINT LeftForeArm
						{
							OFFSET 0.259612 -0.012772 -0.027456
							CHANNELS 3 Zrotation Yrotation Xrotation
							JOINT LeftHand
							{
								OFFSET 0.249234 0.008986 -0.001171
								CHANNELS 3 Zrotation Yrotation Xrotation
								End Site
								{
									OFFSET 0.000000 0.000000 0.000000
								}
							}
						}
					}
				}
				JOINT RightShoulder
				{
					OFFSET -0.081759 0.118833 -0.038615
					CHANNELS 3 Zrotation Yrotation Xrotation
					JOINT RightArm
					{
						OFFSET -0.096012 0.032551 -0.009143
						CHANNELS 3 Zrotation Yrotation Xrotation
						JOINT RightForeArm
						{
							OFFSET -0.253742 -0.013329 -0.021401
							CHANNELS 3 Zrotation Yrotation Xrotation
							JOINT RightHand
							{
								OFFSET -0.255298 0.007772 -0.005559
								CHANNELS 3 Zrotation Yrotation Xrotation
								End Site
								{
									OFFSET 0.000000 0.000000 0.000000
								}
							}
						}
					}
				}
			}
		}
	}
}
MOTION
Frames: 9
Frame Time: 0.050000
0.000000 0.949328 0.000000 -1.020648 -3.240431 6.767447 6.023804 -0.275254 -3.584425 0.244068 0.199935 -6.146934 1.511904 6.561546 11.503036 0.000000 0.000000 0.000000 -2.872156 0.513643 -5.105008 -1.321178 -0.112550 -4.771161 0.461168 -4.327882 11.448598 0.000000 0.000000 0.000000 4.675098 0.239888 -4.564510 -2.004557 0.930139 -5.231722 -2.166883 4.031640 6.230171 4.796766 -2.323093 -10.096793 0.000000 0.000000 0.000000 -12.808032 1.415238 -2.243963 -60.065800 -9.776532 -2.418686 -8.831604 -20.982153 2.337280 0.000000 0.000000 0.000000 12.478075 -7.911807 -4.467504 65.559035 4.757945 -3.590237 4.374536 19.550091 1.438621 0.000000 0.000000 0.000000 
0.000187 0.947986 0.001835 -1.374033 -4.173525 7.566382 6.140905 -0.257793 -3.130327 0.574606 0.235661 -7.398912 2.047592 7.278703 11.219218 0.000000 0.000000 0.000000 -2.909064 0.602380 -6.139619 -0.979665 -0.096574 -3.982113 0.988342 -3.398735 11.365324 0.000000 0.000000 0.000000 5.535071 0.274954 -4.938655 -2.646878 1.182035 -5.356984 -2.069956 5.114429 5.690821 4.672229 -2.173139 -10.178485 0.000000 0.000000 0.000000 -13.899267 2.306334 -2.928159 -59.267378 -9.357160 -2.535382 -9.553355 -21.008134 2.440653 0.000000 0.000000 0.000000 11.832207 -9.164466 -4.909906 66.889957 4.285283 -3.758562 4.431568 19.349946 1.443213 0.000000 0.000000 0.000000 
0.000337 0.947801 0.003071 -0.986206 -3.559858 7.209351 5.828607 -0.254342 -2.944736 0.749399 0.196599 -6.735705 1.570748 6.503396 11.019989 0.000000 0.000000 0.000000 -2.958049 0.584631 -5.981614 -1.365940 -0.049467 -3.530103 0.177128 -4.715056 10.895562 0.000000 0.000000 0.000000 5.208481 0.223642 -4.383628 -2.090786 0.955980 -6.627725 -2.971571 5.366010 6.242386 4.740560 -2.245016 -9.681169 0.000000 0.000000 0.000000 -13.525049 2.181643 -2.919274 -58.737244 -8.533225 -3.020743 -10.228995 -21.085914 2.544073 0.000000 0.000000 0.000000 13.511391 -8.438869 -4.688084 64.881978 4.274743 -3.752600 4.359985 18.942951 1.428557 0.000000 0.000000 0.000000 
0.000358 0.947839 0.004103 -1.110182 -3.457185 7.589137 6.288187 -0.267299 -3.165488 0.425757 0.229263 -7.102260 1.363455 6.286781 11.522453 0.000000 0.000000 0.000000 -2.930899 0.619334 -6.399916 -1.059494 -0.077355 -3.693792 -0.027862 -5.273528 11.371735 0.000000 0.000000 0.000000 5.302942 0.211717 -4.328012 -2.450850 1.103223 -6.369534 -2.442576 5.110436 5.182988 4.482123 -2.109955 -9.418865 0.000000 0.000000 0.000000 -12.942428 3.236666 -3.282683 -59.941864 -8.570525 -2.966665 -9.433648 -21.084674 2.396864 0.000000 0.000000 0.000000 12.204195 -9.030492 -4.849836 65.493988 4.029875 -3.759911 5.034518 18.747214 1.488325 0.000000 0.000000 0.000000 
0.000313 0.947837 0.004837 -0.968996 -2.943778 7.367018 5.991871 -0.266294 -3.001119 0.718777 0.219421 -7.225304 1.156358 6.022339 11.593012 0.000000 0.000000 0.000000 -2.951208 0.590518 -6.072120 -1.362649 -0.077194 -4.100875 -0.318349 -5.758214 11.355053 0.000000 0.000000 0.000000 5.157465 0.181899 -4.000930 -2.172126 0.999494 -6.193090 -2.615726 5.228097 5.108164 4.118803 -1.714183 -10.209093 0.000000 0.000000 0.000000 -12.805011 3.121802 -3.273212 -59.752596 -8.531360 -2.999124 -9.491778 -20.820878 2.356853 0.000000 0.000000 0.000000 12.340742 -8.882328 -4.741537 65.334840 4.366190 -3.522973 4.628927 18.383912 1.409929 0.000000 0.000000 0.000000 
0.000268 0.948173 0.005374 -0.967382 -2.920975 7.469817 6.059118 -0.269239 -3.034661 0.688275 0.232147 -7.481641 1.247573 6.256403 11.913368 0.000000 0.000000 0.000000 -3.001223 0.592399 -6.090056 -1.340740 -0.095071 -4.433446 -0.353450 -6.028912 11.964307 0.000000 0.000000 0.000000 5.079045 0.147980 -3.644452 -2.113369 0.974943 -6.812659 -2.517342 5.725099 5.253832 4.258666 -1.791210 -10.083692 0.000000 0.000000 0.000000 -12.646902 3.355067 -3.420369 -59.770015 -8.243487 -3.187930 -9.092185 -20.614710 2.241928 0.000000 0.000000 0.000000 12.046195 -8.899422 -4.648231 65.688756 4.692916 -3.294165 4.237254 17.827285 1.320061 0.000000 0.000000 0.000000 
0.000347 0.948328 0.005864 -0.872015 -2.612444 7.534399 5.849888 -0.275747 -3.054902 0.626719 0.251040 -7.863716 1.303379 6.503264 12.382112 0.000000 0.000000 0.000000 -2.857550 0.576129 -5.880074 -1.665484 -0.103741 -4.973179 -0.323989 -6.037251 12.284730 0.000000 0.000000 0.000000 5.027661 0.124762 -3.412735 -2.207389 1.017091 -6.822807 -2.499035 5.719639 5.157537 4.532359 -1.849070 -10.851914 0.000000 0.000000 0.000000 -12.639863 3.603569 -3.557933 -59.522213 -7.832500 -3.378402 -9.045483 -20.272068 2.187030 0.000000 0.000000 0.000000 11.975750 -8.836252 -4.590093 65.654218 5.010319 -3.081158 3.848715 17.223133 1.219149 0.000000 0.000000 0.000000 
0.000653 0.948462 0.006410 -0.859108 -2.222209 7.691250 5.640303 -0.290302 -3.231051 0.852645 0.239817 -7.837952 1.201224 6.384700 12.388824 0.000000 0.000000 0.000000 -2.623542 0.569473 -5.790978 -2.019273 -0.101380 -5.291149 -0.456497 -6.294593 12.472343 0.000000 0.000000 0.000000 4.955031 0.106859 -3.251019 -2.059103 0.963364 -7.007951 -2.654388 5.961018 4.997177 4.730064 -1.965321 -10.683942 0.000000 0.000000 0.000000 -12.783608 3.686524 -3.702607 -59.328158 -7.465619 -3.547499 -8.939394 -19.914564 2.105070 0.000000 0.000000 0.000000 11.841656 -8.925169 -4.557717 65.717016 5.119980 -2.937785 3.754850 16.358251 1.145093 0.000000 0.000000 0.000000 
0.001163 0.948578 0.007230 -0.872474 -1.911208 7.717254 5.581636 -0.293130 -3.203702 0.745115 0.254657 -8.091174 1.278826 6.514914 12.259122 0.000000 0.000000 0.000000 -2.577129 0.538652 -5.406210 -2.142696 -0.144712 -6.179681 -0.355479 -6.194973 12.898707 0.000000 0.000000 0.000000 4.928279 0.086792 -3.038485 -2.026026 0.955992 -7.275643 -2.580544 5.983245 4.980968 4.895299 -2.006941 -11.044760 0.000000 0.000000 0.000000 -12.627487 3.778382 -3.738791 -59.565305 -7.337617 -3.644639 -8.691807 -19.224497 1.984745 0.000000 0.000000 0.000000 11.940412 -8.949337 -4.559353 65.606355 5.302603 -2.820095 3.270799 15.435119 1.016007 0.000000 0.000000 0.000000 
